name analog
datacolumns 19
datarows 28
range 0.6495 0.663
endheader
time	ground_force_vx	ground_force_vy	ground_force_vz	ground_force_px	ground_force_py	ground_force_pz	l_ground_force_vx	l_ground_force_vy	l_ground_force_vz	l_ground_force_px	l_ground_force_py	l_ground_force_pz	ground_torque_x	ground_torque_y	ground_torque_z	l_ground_torque_x	l_ground_torque_y	l_ground_torque_z
0.6495	-0.0	-0.0	-0.0	-20.58591651916504	124.03600311279295	-683.06103515625	-55.27840423583984	-131.57040405273438	-658.2615966796875	-0.0	-0.0	-0.0	-0.0	-0.0	-0.0	137882.34375	81364.0078125	-32023.109375
0.65	-0.0	-0.0	-0.0	-20.409690856933597	116.41712951660156	-625.7466430664062	-47.66910552978516	-123.5956573486328	-610.072998046875	-0.0	-0.0	-0.0	-0.0	-0.0	-0.0	127489.25	75083.2265625	-28805.81640625
0.6505	-0.0	-0.0	-0.0	-21.02981948852539	107.77003479003906	-566.4347534179688	-42.286808013916016	-115.65176391601562	-560.3189697265625	-0.0	-0.0	-0.0	-0.0	-0.0	-0.0	116715.09375	68968.359375	-25952.474609375
0.651	-0.0	-0.0	-0.0	-21.94771385192871	99.30343627929688	-504.1859130859375	-37.13994598388672	-106.7470932006836	-513.0338745117188	-0.0	-0.0	-0.0	-0.0	-0.0	-0.0	106454.7578125	63468.33984375	-23418.80078125
0.6515	-0.0	-0.0	-0.0	-22.73046493530273	90.2109146118164	-444.8482971191406	-33.018192291259766	-97.62892150878906	-465.5513610839844	-0.0	-0.0	-0.0	-0.0	-0.0	-0.0	96113.0078125	57811.765625	-20966.06640625
0.652	-0.0	-0.0	-0.0	-22.304292678833008	81.702392578125	-386.5794677734375	-29.316207885742188	-88.5091781616211	-419.02484130859375	-0.0	-0.0	-0.0	-0.0	-0.0	-0.0	85807.25	52419.3515625	-18662.06640625
0.6525	-0.0	-0.0	-0.0	-21.077119827270508	73.61566162109375	-336.2721252441406	-25.100187301635746	-79.85623931884766	-373.9879760742188	-0.0	-0.0	-0.0	-0.0	-0.0	-0.0	76436.1796875	47161.26953125	-16336.58984375
0.653	-0.0	-0.0	-0.0	-17.61416244506836	65.7492904663086	-286.5583190917969	-21.88668441772461	-70.73951721191406	-332.9684143066406	-0.0	-0.0	-0.0	-0.0	-0.0	-0.0	67384.796875	41727.91015625	-14352.4287109375
0.6535	-0.0	-0.0	-0.0	-14.827176094055176	57.68183135986328	-244.54981994628903	-18.05055427551269	-62.52620315551758	-295.00567626953125	-0.0	-0.0	-0.0	-0.0	-0.0	-0.0	59958.44140625	36942.36328125	-12285.4033203125
0.654	-0.0	-0.0	-0.0	-12.020289421081545	50.35537338256836	-207.4822998046875	-13.90199375152588	-54.97591781616211	-260.0025329589844	-0.0	-0.0	-0.0	-0.0	-0.0	-0.0	52434.6171875	32423.548828125	-10316.0244140625
0.6545	-0.0	-0.0	-0.0	-9.699910163879396	41.97547149658203	-177.27671813964844	-9.84463119506836	-48.04248428344727	-229.5426483154297	-0.0	-0.0	-0.0	-0.0	-0.0	-0.0	46436.62109375	28319.830078125	-8494.662109375
0.655	-0.0	-0.0	-0.0	-7.357768535614014	35.29228591918945	-152.73536682128906	-6.585546970367432	-42.173118591308594	-203.27708435058597	-0.0	-0.0	-0.0	-0.0	-0.0	-0.0	40977.9609375	25005.4921875	-6955.79443359375
0.6555	-0.0	-0.0	-0.0	-4.347806930541992	30.23387718200684	-135.79359436035156	-3.236693859100342	-37.29279708862305	-181.1998443603516	-0.0	-0.0	-0.0	-0.0	-0.0	-0.0	36286.6953125	22130.966796875	-5580.98876953125
0.656	-0.0	-0.0	-0.0	-1.404632806777954	26.62669944763184	-121.49161529541016	-0.4193902015686035	-33.29512023925781	-165.05645751953125	-0.0	-0.0	-0.0	-0.0	-0.0	-0.0	32952.71484375	20058.828125	-4525.044921875
0.6565	-0.0	-0.0	-0.0	0.7811247110366821	22.750001907348636	-111.16211700439452	1.1984540224075315	-30.27126121520996	-150.7422637939453	-0.0	-0.0	-0.0	-0.0	-0.0	-0.0	30067.939453125	17933.783203125	-3647.762451171875
0.657	-0.0	-0.0	-0.0	2.9670069217681885	20.499717712402344	-102.68624877929688	2.9949393272399902	-27.710613250732425	-141.2310028076172	-0.0	-0.0	-0.0	-0.0	-0.0	-0.0	28055.380859375	16954.806640625	-3067.685302734375
0.6575	-0.0	-0.0	-0.0	4.148370742797852	18.89564514160156	-96.41682434082033	4.280839920043945	-25.877634048461918	-134.3351593017578	-0.0	-0.0	-0.0	-0.0	-0.0	-0.0	26745.013671875	16020.8115234375	-2502.489501953125
0.658	-0.0	-0.0	-0.0	4.839715480804443	17.5809383392334	-90.94347381591795	5.123091220855713	-24.354400634765625	-128.4871063232422	-0.0	-0.0	-0.0	-0.0	-0.0	-0.0	25286.869140625	15077.0380859375	-2190.280029296875
0.6585	-0.0	-0.0	-0.0	3.925387382507324	15.954591751098633	-86.17689514160156	5.633147239685059	-23.3169002532959	-122.90117645263672	-0.0	-0.0	-0.0	-0.0	-0.0	-0.0	24136.115234375	14638.51953125	-1967.148681640625
0.659	-0.0	-0.0	-0.0	4.4605255126953125	14.907679557800291	-82.38058471679688	6.010124206542969	-22.47793197631836	-120.6321258544922	-0.0	-0.0	-0.0	-0.0	-0.0	-0.0	23609.564453125	14251.5732421875	-1818.367919921875
0.6595	-0.0	-0.0	-0.0	3.7696282863616943	14.840792655944824	-82.28939056396484	5.721963882446289	-21.065074920654297	-116.61663818359376	-0.0	-0.0	-0.0	-0.0	-0.0	-0.0	22654.029296875	13682.1982421875	-1810.629150390625
0.66	-0.0	-0.0	-0.0	2.988821268081665	14.216567993164062	-77.70171356201172	5.7443132400512695	-20.71124267578125	-113.38660430908205	-0.0	-0.0	-0.0	-0.0	-0.0	-0.0	22169.8984375	13464.146484375	-1654.9132080078125
0.6605	-0.0	-0.0	-0.0	2.454322576522827	13.993473052978516	-76.46208953857422	5.677490234375	-20.20345115661621	-110.3319091796875	-0.0	-0.0	-0.0	-0.0	-0.0	-0.0	21825.794921875	12878.6083984375	-1684.3037109375
0.661	-0.0	-0.0	-0.0	1.5832864046096802	13.705199241638184	-75.14141082763672	5.677490234375	-19.761171340942383	-108.49822235107422	-0.0	-0.0	-0.0	-0.0	-0.0	-0.0	21519.30078125	12892.4765625	-1543.7281494140625
0.6615	-0.0	-0.0	-0.0	1.0498884916305542	14.371563911437988	-73.01901245117188	5.233936309814453	-19.739500045776367	-107.45376586914062	-0.0	-0.0	-0.0	-0.0	-0.0	-0.0	21204.43359375	13084.7275390625	-1603.1495361328125
0.662	-0.0	-0.0	-0.0	0.7362622618675232	14.171733856201172	-72.0487060546875	4.147939682006836	-20.116914749145508	-106.57946014404295	-0.0	-0.0	-0.0	-0.0	-0.0	-0.0	20993.326171875	12894.5068359375	-1767.0115966796875
0.6625	-0.0	-0.0	-0.0	0.848106861114502	13.74866771697998	-73.46623229980469	3.127319812774658	-20.842863082885746	-107.2778778076172	-0.0	-0.0	-0.0	-0.0	-0.0	-0.0	21116.681640625	12997.3720703125	-2116.72119140625
0.663	-0.0	-0.0	-0.0	1.4925700426101685	13.680834770202637	-76.89817810058594	1.4217900037765503	-22.145158767700195	-109.0190200805664	-0.0	-0.0	-0.0	-0.0	-0.0	-0.0	21371.283203125	12918.9404296875	-2481.35888671875
